<?xml version="1.0" encoding="utf-8"?>
<svg version="1.1" xmlns:xlink="http://www.w3.org/1999/xlink" width="154px" height="64px" xmlns="http://www.w3.org/2000/svg">
  <g transform="matrix(1 0 0 1 -253 -366 )">
    <path d="M 330 366  C 373.12 366  407 380.08  407 398  C 407 415.92  373.12 430  330 430  C 286.88 430  253 415.92  253 398  C 253 380.08  286.88 366  330 366  Z " fill-rule="nonzero" fill="#d7d7d7" stroke="none" />
    <path d="M 330 366.5  C 372.84000000000003 366.5  406.5 380.36  406.5 398  C 406.5 415.64  372.84000000000003 429.5  330 429.5  C 287.15999999999997 429.5  253.5 415.64  253.5 398  C 253.5 380.36  287.15999999999997 366.5  330 366.5  Z " stroke-width="1" stroke="#797979" fill="none" />
  </g>
</svg>